# Blender 3.5.1
# www.blender.org
mtllib cabinet.mtl
o Locker_mesh
v -0.215000 0.100000 0.250000
v -0.215000 1.820000 0.250000
v -0.215000 0.100000 -0.250000
v -0.215000 1.820000 -0.250000
v 0.215000 0.100000 0.250000
v 0.215000 1.820000 0.250000
v 0.215000 0.100000 -0.250000
v 0.215000 1.820000 -0.250000
v -0.182578 0.132301 0.250000
v -0.182578 1.787699 0.250000
v 0.182578 1.787699 0.250000
v 0.182578 0.132301 0.250000
v -0.182578 0.132301 -0.219734
v -0.182578 1.787699 -0.219734
v 0.182578 1.787699 -0.219734
v 0.182578 0.132301 -0.219734
v -0.178508 0.137203 0.251000
v -0.178508 1.782797 0.251000
v 0.178508 1.782797 0.251000
v 0.178508 0.137203 0.251000
v -0.178508 0.137203 0.202331
v -0.178508 1.782797 0.202331
v 0.178508 1.782797 0.202331
v 0.178508 0.137203 0.202331
v -0.125090 1.550742 0.251000
v -0.125090 1.593780 0.251000
v 0.125090 1.550742 0.251000
v -0.087397 1.550742 0.275292
v 0.125090 1.593780 0.251000
v 0.087397 1.550742 0.275292
v -0.125090 1.467974 0.251000
v -0.125090 1.511012 0.251000
v 0.125090 1.467974 0.251000
v -0.087397 1.467974 0.275292
v 0.125090 1.511012 0.251000
v 0.087397 1.467974 0.275292
v -0.125090 0.374439 0.251000
v -0.125090 0.417477 0.251000
v 0.125090 0.374439 0.251000
v -0.087397 0.374439 0.275293
v 0.125090 0.417477 0.251000
v 0.087397 0.374439 0.275293
v -0.125090 0.291671 0.251000
v -0.125090 0.334709 0.251000
v 0.125090 0.291671 0.251000
v -0.087397 0.291671 0.275293
v 0.125090 0.334709 0.251000
v 0.087397 0.291671 0.275293
v 0.087397 0.456523 0.275293
v 0.125090 0.499562 0.251000
v -0.087397 0.456523 0.275293
v 0.125090 0.456523 0.251000
v -0.125090 0.499562 0.251000
v -0.125090 0.456523 0.251000
v 0.122497 0.896758 0.272279
v 0.122497 1.023242 0.272279
v 0.122497 0.858167 0.242796
v 0.122497 1.061833 0.242796
v 0.165054 0.896758 0.272279
v 0.165054 1.023242 0.272279
v 0.165054 0.858167 0.242796
v 0.165054 1.061833 0.242796
v -0.215000 0.000000 0.250000
v -0.215000 -0.000000 -0.250000
v 0.215000 0.000000 0.250000
v 0.215000 -0.000000 -0.250000
v 0.172000 -0.000000 -0.250000
v -0.172000 -0.000000 -0.250000
v -0.172000 0.000000 0.250000
v 0.172000 0.000000 0.250000
v -0.215000 0.000000 0.212500
v 0.215000 0.000000 0.212500
v -0.172000 0.000000 0.212500
v 0.172000 0.000000 0.212500
v 0.215000 -0.000000 -0.212500
v -0.215000 -0.000000 -0.212500
v -0.172000 -0.000000 -0.212500
v 0.172000 -0.000000 -0.212500
v -0.215000 0.100000 0.170000
v -0.215000 0.100000 0.250000
v -0.137600 0.100000 -0.250000
v -0.215000 0.100000 -0.250000
v 0.215000 0.100000 -0.170000
v 0.215000 0.100000 -0.250000
v 0.137600 0.100000 0.250000
v 0.215000 0.100000 0.250000
v 0.137600 0.100000 -0.250000
v -0.137600 0.100000 0.250000
v -0.137600 0.100000 0.170000
v 0.137600 0.100000 0.170000
v 0.215000 0.100000 0.170000
v -0.215000 0.100000 -0.170000
v -0.137600 0.100000 -0.170000
v 0.137600 0.100000 -0.170000
vn -1.0000 -0.0000 -0.0000
vn -0.0000 -0.0000 -1.0000
vn 1.0000 -0.0000 -0.0000
vn -0.0000 -0.0000 1.0000
vn -0.0000 -1.0000 -0.0000
vn -0.0000 1.0000 -0.0000
vn -0.0000 0.4915 0.8709
vn -0.0000 0.4915 0.8708
vn 0.5417 -0.0000 0.8406
vn -0.5417 -0.0000 0.8406
vn -0.0000 -0.6071 0.7946
vn -0.0000 0.6071 0.7946
vn -0.0000 -0.3911 0.9203
vn -0.0000 -0.3911 -0.9203
vn 0.9456 -0.3253 -0.0000
vn -0.9456 -0.3253 -0.0000
vt 0.624680 0.874039
vt 0.624680 0.874039
vt 0.624680 0.874039
vt 0.624680 0.874039
vt 0.624680 0.874039
vt 0.624680 0.874039
vt 0.624680 0.874039
vt 0.624680 0.874039
vt 0.624680 0.874039
vt 0.624680 0.874039
vt 0.624680 0.874039
vt 0.624680 0.874039
vt 0.624680 0.874039
vt 0.624680 0.874039
vt 0.624680 0.874039
vt 0.624680 0.874039
vt 0.624680 0.874039
vt 0.624680 0.874039
vt 0.624680 0.874039
vt 0.624680 0.874039
vt 0.624680 0.874039
vt 0.624680 0.874039
vt 0.624680 0.874039
vt 0.624680 0.874039
vt 0.624680 0.874039
vt 0.624680 0.874039
vt 0.624680 0.874039
vt 0.624680 0.874039
vt 0.624680 0.874039
vt 0.624680 0.874039
vt 0.624680 0.874039
vt 0.624680 0.874039
vt 0.624680 0.874039
vt 0.624680 0.874039
vt 0.624680 0.874039
vt 0.624680 0.874039
vt 0.624680 0.874039
vt 0.624680 0.874039
vt 0.624680 0.874039
vt 0.624680 0.874039
vt 0.624680 0.874039
vt 0.624680 0.874039
vt 0.624680 0.874039
vt 0.624680 0.874039
vt 0.624680 0.874039
vt 0.624680 0.874039
vt 0.624680 0.874039
vt 0.624680 0.874039
vt 0.624680 0.874039
vt 0.624680 0.874039
vt 0.624680 0.874039
vt 0.624680 0.874039
vt 0.624680 0.874039
vt 0.624680 0.874039
vt 0.624680 0.874039
vt 0.624680 0.874039
vt 0.624680 0.874039
vt 0.624680 0.874039
vt 0.624680 0.874039
vt 0.624680 0.874039
vt 0.624680 0.874039
vt 0.624680 0.874039
vt 0.624680 0.874039
vt 0.624680 0.874039
vt 0.624680 0.874039
vt 0.624680 0.874039
vt 0.624680 0.874039
vt 0.624680 0.874039
vt 0.624680 0.874039
vt 0.624680 0.874039
vt 0.624680 0.874039
vt 0.624680 0.874039
vt 0.624680 0.874039
vt 0.624680 0.874039
vt 0.624680 0.874039
vt 0.624680 0.874039
vt 0.624680 0.874039
vt 0.624680 0.874039
vt 0.624680 0.874039
vt 0.624680 0.874039
vt 0.624680 0.874039
vt 0.624680 0.874039
vt 0.624680 0.874039
vt 0.624680 0.874039
vt 0.624680 0.874039
vt 0.624680 0.874039
vt 0.624680 0.874039
vt 0.624680 0.874039
vt 0.624680 0.874039
vt 0.624680 0.874039
vt 0.624680 0.874039
vt 0.624680 0.874039
vt 0.624680 0.874039
vt 0.624680 0.874039
s 0
usemtl Material
f 1/1/1 2/2/1 4/4/1 3/3/1
f 3/3/2 4/4/2 8/8/2 7/7/2
f 7/7/3 8/8/3 6/6/3 5/5/3
f 2/2/4 1/1/4 9/9/4 10/10/4
f 3/3/5 7/7/5 5/5/5 1/1/5
f 8/8/6 4/4/6 2/2/6 6/6/6
f 9/9/6 12/12/6 16/16/6 13/13/6
f 1/1/4 5/5/4 12/12/4 9/9/4
f 6/6/4 2/2/4 10/10/4 11/11/4
f 5/5/4 6/6/4 11/11/4 12/12/4
f 16/16/4 15/15/4 14/14/4 13/13/4
f 10/10/3 9/9/3 13/13/3 14/14/3
f 11/11/5 10/10/5 14/14/5 15/15/5
f 12/12/1 11/11/1 15/15/1 16/16/1
f 20/20/4 19/19/4 18/18/4 17/17/4
f 24/24/2 21/21/2 22/22/2 23/23/2
f 17/17/5 21/21/5 24/24/5 20/20/5
f 18/18/1 22/22/1 21/21/1 17/17/1
f 19/19/6 23/23/6 22/22/6 18/18/6
f 20/20/3 24/24/3 23/23/3 19/19/3
f 36/36/7 35/35/7 32/32/7 34/34/7
f 30/30/8 29/29/8 26/26/8 28/28/8
f 29/29/9 30/30/9 27/27/9
f 27/27/5 30/30/5 28/28/5 25/25/5
f 25/25/10 28/28/10 26/26/10
f 35/35/9 36/36/9 33/33/9
f 33/33/5 36/36/5 34/34/5 31/31/5
f 31/31/10 34/34/10 32/32/10
f 48/48/7 47/47/7 44/44/7 46/46/7
f 42/42/7 41/41/7 38/38/7 40/40/7
f 41/41/9 42/42/9 39/39/9
f 39/39/5 42/42/5 40/40/5 37/37/5
f 37/37/10 40/40/10 38/38/10
f 47/47/9 48/48/9 45/45/9
f 45/45/5 48/48/5 46/46/5 43/43/5
f 43/43/10 46/46/10 44/44/10
f 54/54/10 51/51/10 53/53/10
f 52/52/5 49/49/5 51/51/5 54/54/5
f 50/50/9 49/49/9 52/52/9
f 49/49/7 50/50/7 53/53/7 51/51/7
f 55/55/1 56/56/1 58/58/1 57/57/1
f 61/61/3 62/62/3 60/60/3 59/59/3
f 59/59/4 60/60/4 56/56/4 55/55/4
f 57/57/11 61/61/11 59/59/11 55/55/11
f 62/62/12 58/58/12 56/56/12 60/60/12
f 74/74/5 72/72/5 65/65/5 70/70/5
f 71/71/5 73/73/5 69/69/5 63/63/5
f 77/77/13 93/93/13 92/92/13 76/76/13
f 82/82/6 92/92/6 93/93/6 81/81/6
f 87/87/6 94/94/6 83/83/6 84/84/6
f 79/79/6 80/80/6 88/88/6 89/89/6
f 67/67/5 66/66/5 75/75/5 78/78/5
f 64/64/5 68/68/5 77/77/5 76/76/5
f 90/90/6 85/85/6 86/86/6 91/91/6
f 63/63/1 80/80/1 79/79/1 71/71/1
f 71/71/14 79/79/14 89/89/14 73/73/14
f 73/73/15 89/89/15 88/88/15 69/69/15
f 64/64/2 82/82/2 81/81/2 68/68/2
f 74/74/14 90/90/14 91/91/14 72/72/14
f 70/70/16 85/85/16 90/90/16 74/74/16
f 66/66/3 84/84/3 83/83/3 75/75/3
f 65/65/4 86/86/4 85/85/4 70/70/4
f 76/76/1 92/92/1 82/82/1 64/64/1
f 72/72/3 91/91/3 86/86/3 65/65/3
f 67/67/2 87/87/2 84/84/2 66/66/2
f 68/68/15 81/81/15 93/93/15 77/77/15
f 78/78/16 94/94/16 87/87/16 67/67/16
f 69/69/4 88/88/4 80/80/4 63/63/4
f 75/75/13 83/83/13 94/94/13 78/78/13
